<?xml version="1.0" encoding="UTF-8" standalone="no"?>
<!-- Created with Inkscape (http://www.inkscape.org/) -->

<svg
   version="1.1"
   id="svg132"
   width="400"
   height="310.43851"
   viewBox="0 0 400 310.4385"
   sodipodi:docname="music-headphone-logo_plain.svg"
   inkscape:version="1.2 (dc2aedaf03, 2022-05-15)"
   xmlns:inkscape="http://www.inkscape.org/namespaces/inkscape"
   xmlns:sodipodi="http://sodipodi.sourceforge.net/DTD/sodipodi-0.dtd"
   xmlns:xlink="http://www.w3.org/1999/xlink"
   xmlns="http://www.w3.org/2000/svg"
   xmlns:svg="http://www.w3.org/2000/svg">
  <sodipodi:namedview
     id="namedview139"
     pagecolor="#ffffff"
     bordercolor="#666666"
     borderopacity="1.0"
     inkscape:showpageshadow="2"
     inkscape:pageopacity="0.0"
     inkscape:pagecheckerboard="0"
     inkscape:deskcolor="#d1d1d1"
     showgrid="false"
     inkscape:zoom="1"
     inkscape:cx="117.5"
     inkscape:cy="121"
     inkscape:current-layer="svg132" />
  <defs
     id="defs136">
    <linearGradient
       inkscape:collect="always"
       id="linearGradient827">
      <stop
         style="stop-color:#f4e707;stop-opacity:1;"
         offset="0.22180451"
         id="stop823" />
      <stop
         style="stop-color:#ffa90f;stop-opacity:1;"
         offset="1"
         id="stop825" />
    </linearGradient>
    <rect
       x="26.595745"
       y="191.48936"
       width="346.8085"
       height="78.19149"
       id="rect883" />
    <linearGradient
       inkscape:collect="always"
       xlink:href="#linearGradient827"
       id="linearGradient829"
       x1="19.4375"
       y1="121.36813"
       x2="330.5625"
       y2="121.36813"
       gradientUnits="userSpaceOnUse" />
    <linearGradient
       inkscape:collect="always"
       xlink:href="#linearGradient827"
       id="linearGradient843"
       gradientUnits="userSpaceOnUse"
       x1="19.4375"
       y1="121.36813"
       x2="330.5625"
       y2="121.36813" />
    <linearGradient
       inkscape:collect="always"
       xlink:href="#linearGradient827"
       id="linearGradient845"
       gradientUnits="userSpaceOnUse"
       x1="19.4375"
       y1="121.36813"
       x2="330.5625"
       y2="121.36813" />
    <linearGradient
       inkscape:collect="always"
       xlink:href="#linearGradient827"
       id="linearGradient847"
       gradientUnits="userSpaceOnUse"
       x1="19.4375"
       y1="121.36813"
       x2="330.5625"
       y2="121.36813" />
  </defs>
  <g
     id="g138"
     transform="matrix(1.2856569,0,0,1.2856569,-24.989956,-0.81852547)"
     style="fill:url(#linearGradient829);fill-opacity:1;stroke-width:0.777812">
    <path
       style="display:inline;fill:url(#linearGradient843);fill-opacity:1;stroke-width:0.777812"
       d="m 111.7247,177.17126 c -1.49221,-1.64887 -1.65499,-6.61026 -1.65499,-50.4433 V 78.113408 l 2.22251,-1.556704 C 113.59889,75.641472 116.61759,75 119.6179,75 c 4.017,0 5.54031,0.478899 7.15694,2.25 1.84746,2.024 2.11823,4.00778 2.69567,19.75 0.84906,23.14738 1.16094,25 4.20861,25 2.81525,0 3.19334,2.97176 0.89059,7 -0.78602,1.375 -1.44508,4.4125 -1.46456,6.75 -0.0195,2.3375 -0.48544,4.25 -1.03544,4.25 -0.58271,0 -1,-3.31366 -1,-7.94098 0,-4.36754 -0.45,-8.2191 -1,-8.55902 -0.65329,-0.40376 -1.0145,6.24992 -1.04181,19.19098 -0.0556,26.35055 -0.60515,33.31746 -2.75698,34.95265 -2.69703,2.04949 -12.55364,1.72941 -14.54622,-0.47237 z m 111.56752,0.27204 c -2.17886,-1.52613 -2.22251,-1.9767 -2.22251,-22.94099 0,-11.76135 -0.40784,-21.63634 -0.90632,-21.94441 -0.49847,-0.30807 -1.2157,-2.80963 -1.59383,-5.55902 C 218.0379,123.13331 217.47909,122 216.1047,122 c -1.38718,0 -1.929,1.14335 -2.46826,5.20853 -0.42877,3.23218 -0.99418,4.71788 -1.4901,3.91546 -0.57746,-0.93435 -0.9623,-0.66918 -1.38728,0.95593 -0.4977,1.90322 -0.82651,2.05114 -2.13874,0.96209 -0.85283,-0.7078 -1.62396,-0.8943 -1.71361,-0.41445 -0.0896,0.47984 -0.42714,-1.60256 -0.75,-4.62756 -0.49347,-4.62368 -0.90348,-5.5 -2.5733,-5.5 -1.21877,0 -2.10325,0.77284 -2.28894,2 -0.87228,5.76468 -1.35198,6.9118 -2.27816,5.44785 -0.68741,-1.08657 -0.9198,-0.77636 -0.93129,1.24313 -0.008,1.48004 -0.46531,2.9691 -1.01531,3.30902 -0.60483,0.37381 -1,-1.00929 -1,-3.5 0,-5.14526 -1.95233,-4.39882 -2.116,0.80902 -0.12742,4.05427 -0.43293,3.14963 -1.39046,-4.11727 -0.95765,-7.26786 -5.43821,-7.62916 -5.47823,-0.44175 -0.008,1.5125 -0.38595,2.75 -0.83894,2.75 -0.453,0 -1.29614,1.6875 -1.87364,3.75 l -1.04999,3.75 -0.19666,-3.5 c -0.22568,-4.01671 -1.86479,-8.76284 -1.98579,-5.75 -0.13409,3.33864 -1.95117,1.73056 -2.25992,-2 -0.34803,-4.20497 -3.08512,-5.33603 -3.62992,-1.5 -0.17575,1.2375 -0.96325,2.25 -1.75,2.25 -0.78675,0 -1.43045,0.87344 -1.43045,1.94098 0,2.49992 -1.96193,3.72114 -3.11207,1.93714 -0.48865,-0.75797 -1.35568,-3.06562 -1.92674,-5.12812 -1.67015,-6.03214 -4.96119,-4.48533 -4.96119,2.33179 0,4.33748 -1.98837,3.5386 -2.07029,-0.83179 -0.0564,-3.0082 -0.24029,-3.35437 -0.92971,-1.75 -0.47269,1.1 -0.95234,3.35 -1.0659,5 -0.16688,2.42481 -0.28955,2.56861 -0.63983,0.75 -0.60845,-3.15898 -2.277,-2.80834 -2.37932,0.5 -0.0574,1.85574 -0.50397,1.01894 -1.37331,-2.57332 -1.66317,-6.87244 -3.11981,-8.41637 -4.50448,-4.77442 -0.57044,1.50037 -1.03716,3.4002 -1.03716,4.22186 0,0.82165 -0.45,1.2158 -1,0.87588 -0.55,-0.33992 -1,0.33508 -1,1.5 0,3.38314 -1.98761,1.2165 -2.11822,-2.30902 -0.10112,-2.72957 -0.26136,-2.50415 -1.10818,1.55902 -0.54448,2.6125 -1.33403,4.75 -1.75455,4.75 -0.42053,0 -0.98123,-2.25456 -1.246,-5.01013 -0.26827,-2.79192 -1.26367,-5.87451 -2.24824,-6.96245 -1.52483,-1.68493 -1.6631,-3.01892 -1.00951,-9.73987 0.83528,-8.58925 1.11566,-8.56076 2.31454,0.23516 l 0.8147,5.97729 1.34991,-4.5 c 0.94094,-3.13667 1.46696,-3.89408 1.73628,-2.5 0.85346,4.41782 1.29217,5.07786 2.30775,3.47197 0.74176,-1.1729 0.93401,-1.03145 0.94621,0.69624 0.0194,2.74215 0.99501,5.33179 2.00876,5.33179 0.4287,0 1.06869,-1.9125 1.42219,-4.25 0.99145,-6.55599 2.19279,-7.60021 2.99221,-2.6009 0.51414,3.21522 0.92745,3.93512 1.62548,2.83121 0.51483,-0.81417 0.99554,-3.05531 1.06826,-4.98031 0.10874,-2.87848 0.2923,-2.53486 1.03372,1.93508 1.07205,6.46322 1.85881,7.71098 1.88,2.98159 0.008,-1.87917 0.45153,-4.09167 0.98469,-4.91667 0.69397,-1.07384 0.97372,-0.008 0.98469,3.75 0.0181,6.20597 1.71495,6.98056 2.63858,1.20447 0.61756,-3.86199 0.7012,-3.94138 1.84357,-1.75 0.65817,1.26254 1.70894,2.18751 2.33506,2.05548 0.62611,-0.13202 1.61765,0.65548 2.20343,1.75 1.42336,2.65959 2.99103,2.5242 3.00998,-0.25995 0.0114,-1.67858 0.23809,-1.89823 0.89252,-0.8649 0.70358,1.11096 1.09639,0.97552 1.98468,-0.68426 0.60912,-1.13815 1.10749,-2.97238 1.10749,-4.07608 0,-3.15216 1.7092,-3.40199 2.51662,-0.36785 0.40148,1.5087 0.93698,2.18059 1.19001,1.49309 0.97508,-2.64947 2.29337,-1.0687 2.29337,2.75 0,3.5478 0.26944,4 2.38337,4 2.81217,0 3.58304,-2.08606 3.60298,-9.75 0.0162,-6.2133 1.48569,-6.95316 2.404,-1.21033 0.49392,3.08878 1.05362,3.97148 2.37781,3.75 1.33318,-0.22299 1.80122,0.53887 2.03322,3.30961 0.26848,3.20636 0.61566,3.60822 3.18031,3.68114 l 2.87894,0.0818 0.69867,-8.93113 c 0.7383,-9.43775 2.4008,-12.22006 2.49833,-4.18114 0.0317,2.6125 0.38808,6.55 0.79197,8.75 0.68603,3.7369 0.78788,3.83556 1.54836,1.5 0.74235,-2.27984 0.85728,-2.32387 1.3051,-0.5 0.9207,3.74978 2.29332,4.00552 2.41525,0.45 0.11832,-3.45 0.11832,-3.45 0.75,-0.5067 1.08605,5.06038 2.53298,3.35807 4.20172,-4.9433 l 1.60816,-8 0.75828,5 c 1.95113,12.86557 3.40811,6.7372 3.49324,-14.693296 0.068,-17.11102 0.14343,-17.744526 2.2928,-19.25 C 224.59217,75.646179 227.61302,75 230.56971,75 c 2.95669,0 5.97754,0.646179 7.27749,1.556704 l 2.22251,1.556704 V 127 175.88659 l -2.22251,1.55671 c -1.29995,0.91052 -4.3208,1.5567 -7.27749,1.5567 -2.95669,0 -5.97754,-0.64618 -7.27749,-1.5567 z M 94.81971,137.25 c -0.4407,-59.494998 0.16206,-88.921096 1.92802,-94.122594 5.25598,-15.481137 18.10226,-26.804239 39.56562,-34.8743329 15.0321,-5.6519788 24.8304,-7.60269577 38.25636,-7.61634995 17.20111,-0.0174935 31.7215,3.56074405 49.5,12.19820285 12.28417,5.968109 21.89912,15.1333 27.32774,26.049431 l 3.67226,7.384357 V 108.63436 171 h -7 -7 V 110.46676 49.933513 l -2.63802,-5.205878 C 234.62717,37.219776 225.56645,28.787503 216.84513,24.638316 199.54677,16.408576 181.36679,12.930777 165.96796,14.905598 155.62575,16.231932 140.41315,20.80832 131.60366,25.243367 124.29005,28.925327 114.3318,38.733599 111.03727,45.5 l -2.43448,5 -0.34753,60.25 -0.34754,60.25 h -6.41901 -6.419 z m 162.25,-10.21709 c 0,-50.658009 -1.07383,-46.964465 10.2431,-35.232225 10.9531,11.355055 15.80615,24.999905 14.37366,40.412975 -1.29704,13.95568 -9.66091,28.27302 -21.39928,36.63148 l -3.21748,2.29105 z M 83.88672,163.75 C 67.013442,147.05571 63.317964,123.36111 74.350901,102.60841 77.59443,96.507395 86.65205,86.342398 90.81971,84.126132 l 2.25,-1.1965 v 43.535188 c 0,37.12647 -0.21095,43.53518 -1.43299,43.53518 -0.78815,0 -4.27565,-2.8125 -7.75,-6.25 z"
       id="path246" />
    <g
       aria-label="Sound Scape"
       transform="translate(-9.3344108,1.0638298)"
       id="text881"
       style="font-size:40px;line-height:1.25;white-space:pre;shape-inside:url(#rect883);display:inline;fill:url(#linearGradient847);fill-opacity:1;stroke-width:0.604992">
      <path
         id="path1003"
         style="font-size:42.6667px;font-family:Orbitron;-inkscape-font-specification:'Orbitron, Normal';fill:url(#linearGradient845);fill-opacity:1;stroke-width:0.777812"
         d="m 172.47308,198.36976 v 8.10547 h -16.51172 c -0.96711,0 -1.85003,0.24301 -2.64648,0.72657 -0.768,0.45511 -1.3934,1.08051 -1.87695,1.87695 -0.45512,0.768 -0.68164,1.61993 -0.68164,2.55859 v 14.42188 c 0,0.93866 0.22652,1.80707 0.68164,2.60351 0.48355,0.768 1.10895,1.3934 1.87695,1.87696 0.79645,0.45511 1.67937,0.68359 2.64648,0.68359 h 20.00977 v -32.85352 z m -138.582029,2.13282 c -0.938666,0 -1.805118,0.22652 -2.601562,0.68164 -0.768,0.4551 -1.380827,1.08246 -1.835938,1.8789 -0.45511,0.768 -0.68164,1.61993 -0.68164,2.5586 v 6.86914 c 0,0.93866 0.22653,1.79255 0.68164,2.56054 0.455111,0.768 1.067938,1.3934 1.835938,1.87696 0.796444,0.4551 1.662896,0.68359 2.601562,0.68359 H 54.37152 c 0.455111,0 0.839455,0.15586 1.152344,0.46875 0.341333,0.31289 0.511719,0.69723 0.511719,1.15235 v 6.86914 c 0,0.4551 -0.170386,0.85397 -0.511719,1.19531 -0.312889,0.31288 -0.697233,0.46875 -1.152344,0.46875 H 33.891051 c -0.455111,0 -0.852026,-0.15587 -1.193359,-0.46875 -0.312889,-0.34134 -0.470703,-0.74021 -0.470703,-1.19531 v -1.19532 h -3.455078 v 1.19532 c 0,0.93866 0.22653,1.80707 0.68164,2.60351 0.455111,0.768 1.067938,1.37888 1.835938,1.83399 0.796444,0.45511 1.662896,0.68359 2.601562,0.68359 H 54.37152 c 0.938667,0 1.792547,-0.22848 2.560547,-0.68359 0.796444,-0.45511 1.421842,-1.06599 1.876953,-1.83399 0.455112,-0.79644 0.683594,-1.66485 0.683594,-2.60351 v -6.86914 c 0,-0.93867 -0.228482,-1.79255 -0.683594,-2.56055 -0.455111,-0.768 -1.080509,-1.37887 -1.876953,-1.83399 -0.768,-0.48355 -1.62188,-0.72461 -2.560547,-0.72461 H 33.891051 c -0.455111,0 -0.852026,-0.15781 -1.193359,-0.4707 -0.312889,-0.31288 -0.470703,-0.69723 -0.470703,-1.15234 v -6.86914 c 0,-0.45511 0.157814,-0.83945 0.470703,-1.15235 0.341333,-0.34133 0.738248,-0.51172 1.193359,-0.51172 H 54.37152 c 0.455111,0 0.839455,0.17039 1.152344,0.51172 0.341333,0.3129 0.511719,0.69724 0.511719,1.15235 v 1.19531 h 3.457031 v -1.19531 c 0,-0.93867 -0.228482,-1.7906 -0.683594,-2.5586 -0.455111,-0.79644 -1.080509,-1.4238 -1.876953,-1.8789 -0.768,-0.45512 -1.62188,-0.68164 -2.560547,-0.68164 z m 163.244139,0 c -0.93866,0 -1.80707,0.22652 -2.60351,0.68164 -0.768,0.4551 -1.37888,1.08246 -1.83399,1.8789 -0.45511,0.768 -0.68359,1.61993 -0.68359,2.5586 v 6.86914 c 0,0.93866 0.22848,1.79255 0.68359,2.56054 0.45511,0.768 1.06599,1.3934 1.83399,1.87696 0.79644,0.4551 1.66485,0.68359 2.60351,0.68359 h 20.47852 c 0.45511,0 0.83946,0.15586 1.15234,0.46875 0.34134,0.31289 0.51172,0.69723 0.51172,1.15235 v 6.86914 c 0,0.4551 -0.17038,0.85397 -0.51172,1.19531 -0.31288,0.31288 -0.69723,0.46875 -1.15234,0.46875 h -20.47852 c -0.45511,0 -0.85398,-0.15587 -1.19531,-0.46875 -0.31289,-0.34134 -0.46875,-0.74021 -0.46875,-1.19531 v -1.19532 h -3.45703 v 1.19532 c 0,0.93866 0.22848,1.80707 0.68359,2.60351 0.45511,0.768 1.06599,1.37888 1.83399,1.83399 0.79644,0.45511 1.66485,0.68359 2.60351,0.68359 h 20.47852 c 0.93866,0 1.79254,-0.22848 2.56054,-0.68359 0.79644,-0.45511 1.42184,-1.06599 1.87696,-1.83399 0.45511,-0.79644 0.68359,-1.66485 0.68359,-2.60351 v -6.86914 c 0,-0.93867 -0.22848,-1.79255 -0.68359,-2.56055 -0.45512,-0.768 -1.08052,-1.37887 -1.87696,-1.83399 -0.768,-0.48355 -1.62188,-0.72461 -2.56054,-0.72461 h -20.47852 c -0.45511,0 -0.85398,-0.15781 -1.19531,-0.4707 -0.31289,-0.31288 -0.46875,-0.69723 -0.46875,-1.15234 v -6.86914 c 0,-0.45511 0.15586,-0.83945 0.46875,-1.15235 0.34133,-0.34133 0.7402,-0.51172 1.19531,-0.51172 h 20.47852 c 0.45511,0 0.83946,0.17039 1.15234,0.51172 0.34134,0.3129 0.51172,0.69724 0.51172,1.15235 v 1.19531 h 3.45703 v -1.19531 c 0,-0.93867 -0.22848,-1.7906 -0.68359,-2.5586 -0.45512,-0.79644 -1.08052,-1.4238 -1.87696,-1.8789 -0.768,-0.45512 -1.62188,-0.68164 -2.56054,-0.68164 z m -128.128904,5.97265 c -0.938667,0 -1.805119,0.24301 -2.601563,0.72657 -0.768,0.45511 -1.39535,1.08051 -1.878906,1.87695 -0.455111,0.768 -0.681641,1.61993 -0.681641,2.55859 v 14.42188 c 0,0.93866 0.22653,1.80707 0.681641,2.60351 0.483556,0.768 1.110906,1.3934 1.878906,1.87696 0.796444,0.45511 1.662896,0.68359 2.601563,0.68359 h 14.847656 c 0.96711,0 1.835516,-0.22848 2.603516,-0.68359 0.796444,-0.48356 1.421842,-1.10896 1.876953,-1.87696 0.483555,-0.79644 0.724609,-1.66485 0.724609,-2.60351 v -14.42188 c 0,-0.93866 -0.241054,-1.79059 -0.724609,-2.55859 -0.455111,-0.79644 -1.080509,-1.42184 -1.876953,-1.87695 -0.768,-0.48356 -1.636406,-0.72657 -2.603516,-0.72657 z m 23.466797,0 v 19.58399 c 0,0.93866 0.228483,1.80707 0.683593,2.60351 0.483556,0.768 1.108954,1.3934 1.876954,1.87696 0.796443,0.45511 1.662896,0.68359 2.601562,0.68359 h 14.847658 c 0.96711,0 1.83551,-0.22848 2.60351,-0.68359 0.79645,-0.48356 1.42184,-1.10896 1.87696,-1.87696 0.48355,-0.79644 0.72656,-1.66485 0.72656,-2.60351 v -19.58399 h -3.5 v 19.58399 c 0,0.45511 -0.17039,0.85398 -0.51172,1.19531 -0.34133,0.31289 -0.7402,0.46875 -1.19531,0.46875 H 97.635192 c -0.455111,0 -0.852026,-0.15586 -1.193359,-0.46875 -0.312889,-0.34133 -0.470703,-0.7402 -0.470703,-1.19531 v -19.58399 z m 29.910157,0 v 24.74805 h 3.49805 v -19.58594 c 0,-0.45511 0.17037,-0.8375 0.51171,-1.15039 0.34134,-0.34133 0.74021,-0.51172 1.19532,-0.51172 h 14.84765 c 0.45512,0 0.83946,0.17039 1.15235,0.51172 0.34134,0.31289 0.51172,0.69528 0.51172,1.15039 v 19.58594 h 3.49804 v -19.58594 c 0,-0.93866 -0.24105,-1.79059 -0.72461,-2.55859 -0.45511,-0.79644 -1.08051,-1.42184 -1.87695,-1.87695 -0.76801,-0.48356 -1.62188,-0.72657 -2.56055,-0.72657 z m 109.86523,0 c -0.93866,0 -1.80511,0.24301 -2.60156,0.72657 -0.768,0.45511 -1.39339,1.08051 -1.87695,1.87695 -0.45511,0.768 -0.6836,1.61993 -0.6836,2.55859 v 14.42188 c 0,0.93866 0.22849,1.80707 0.6836,2.60351 0.48356,0.768 1.10895,1.3934 1.87695,1.87696 0.79645,0.45511 1.6629,0.68359 2.60156,0.68359 h 20.05469 v -3.5 h -20.05469 c -0.45511,0 -0.85202,-0.15586 -1.19336,-0.46875 -0.31288,-0.34133 -0.4707,-0.7402 -0.4707,-1.19531 v -14.42188 c 0,-0.45511 0.15782,-0.8375 0.4707,-1.15039 0.34134,-0.34133 0.73825,-0.51172 1.19336,-0.51172 h 19.96875 v -3.5 z m 24.53321,0 v 3.5 h 20.01172 c 0.45511,0 0.83945,0.17039 1.15234,0.51172 0.34133,0.31289 0.51172,0.69528 0.51172,1.15039 v 5.46289 h -21.67578 v 8.95899 c 0,0.93866 0.22848,1.80707 0.68359,2.60351 0.48355,0.768 1.10895,1.3934 1.87695,1.87696 0.79645,0.45511 1.66485,0.68359 2.60352,0.68359 h 20.05273 v -19.58594 c 0,-0.93866 -0.24105,-1.79059 -0.72461,-2.55859 -0.4551,-0.79644 -1.08246,-1.42184 -1.8789,-1.87695 -0.768,-0.48356 -1.63445,-0.72657 -2.60156,-0.72657 z m 29.69726,0 v 34.56055 h 3.49805 v -9.8125 h 16.55469 c 0.93866,0 1.79254,-0.22848 2.56054,-0.68359 0.79645,-0.48356 1.42184,-1.10896 1.87696,-1.87696 0.48355,-0.79644 0.72461,-1.66485 0.72461,-2.60351 v -14.42188 c 0,-0.93866 -0.24106,-1.79059 -0.72461,-2.55859 -0.45512,-0.79644 -1.08051,-1.42184 -1.87696,-1.87695 -0.768,-0.48356 -1.62188,-0.72657 -2.56054,-0.72657 z m 33.36524,0 c -0.93867,0 -1.80707,0.24301 -2.60352,0.72657 -0.768,0.45511 -1.3934,1.08051 -1.87695,1.87695 -0.45512,0.768 -0.68164,1.61993 -0.68164,2.55859 v 14.42188 c 0,0.93866 0.22652,1.80707 0.68164,2.60351 0.48355,0.768 1.10895,1.3934 1.87695,1.87696 0.79645,0.45511 1.66485,0.68359 2.60352,0.68359 h 20.05273 v -3.5 h -20.05273 c -0.45512,0 -0.85398,-0.15586 -1.19532,-0.46875 -0.31288,-0.34133 -0.46875,-0.7402 -0.46875,-1.19531 v -5.46094 h 21.7168 v -8.96094 c 0,-0.93866 -0.24105,-1.79059 -0.72461,-2.55859 -0.4551,-0.79644 -1.08051,-1.42184 -1.87695,-1.87695 -0.768,-0.48356 -1.6364,-0.72657 -2.60352,-0.72657 z m -250.837894,3.5 h 14.847656 c 0.455111,0 0.839455,0.17039 1.152344,0.51172 0.341333,0.31289 0.511719,0.69528 0.511719,1.15039 v 14.42188 c 0,0.45511 -0.170386,0.85398 -0.511719,1.19531 -0.312889,0.31289 -0.697233,0.46875 -1.152344,0.46875 H 69.006286 c -0.455111,0 -0.85398,-0.15586 -1.195313,-0.46875 -0.312889,-0.34133 -0.46875,-0.7402 -0.46875,-1.19531 v -14.42188 c 0,-0.45511 0.155861,-0.8375 0.46875,-1.15039 0.341333,-0.34133 0.740202,-0.51172 1.195313,-0.51172 z m 86.955074,0 h 14.84766 c 0.45511,0 0.83945,0.17039 1.15234,0.51172 0.34134,0.31289 0.51172,0.69528 0.51172,1.15039 v 14.42188 c 0,0.45511 -0.17038,0.85398 -0.51172,1.19531 -0.31289,0.31289 -0.69723,0.46875 -1.15234,0.46875 h -14.84766 c -0.45511,0 -0.85398,-0.15586 -1.19531,-0.46875 -0.31288,-0.34133 -0.46875,-0.7402 -0.46875,-1.19531 v -14.42188 c 0,-0.45511 0.15587,-0.8375 0.46875,-1.15039 0.34133,-0.34133 0.7402,-0.51172 1.19531,-0.51172 z m 135.72266,0 h 14.84766 c 0.45511,0 0.83945,0.17039 1.15234,0.51172 0.34133,0.31289 0.51172,0.69528 0.51172,1.15039 v 14.42188 c 0,0.45511 -0.17039,0.85398 -0.51172,1.19531 -0.31289,0.31289 -0.69723,0.46875 -1.15234,0.46875 h -14.84766 c -0.45511,0 -0.85398,-0.15586 -1.19531,-0.46875 -0.34134,-0.34133 -0.51172,-0.7402 -0.51172,-1.19531 v -14.42188 c 0,-0.45511 0.17038,-0.8375 0.51172,-1.15039 0.34133,-0.34133 0.7402,-0.51172 1.19531,-0.51172 z m 28.16016,0 h 14.84765 c 0.45512,0 0.83946,0.17039 1.15235,0.51172 0.34133,0.31289 0.51172,0.69528 0.51172,1.15039 v 5.46289 h -18.17579 v -5.46289 c 0,-0.45511 0.15587,-0.8375 0.46875,-1.15039 0.34134,-0.34133 0.7402,-0.51172 1.19532,-0.51172 z m -59.5625,10.62305 h 18.17578 v 7.125 h -16.51172 c -0.45511,0 -0.85398,-0.15586 -1.19531,-0.46875 -0.31289,-0.34133 -0.46875,-0.7402 -0.46875,-1.19531 z" />
    </g>
  </g>
</svg>
